#!OML:ASF F:\VICON\USERDATA\INSTALL\Justin_Nancy\Justin_Nancy.ASF
:FULLY-SPECIFIED
:DEGREES
470
root 10.2121 17.4555 10.537 73.4195 93.299 70.473
lowerback 7.40136 2.00778 2.39212
upperback -0.281299 2.98791 1.74859
thorax -4.41447 1.45565 0.138934
lowerneck -16.7847 -4.67216 -8.00911
upperneck 22.0754 -5.1566 4.23327
head 10.1446 -2.4843 2.13063
rclavicle -4.83295e-014 -2.90226e-014
rhumerus -28.1085 -8.17718 -80.9191
rradius 33.1744
rwrist 4.30047
rhand -13.1728 11.7078
rfingers 7.12502
rthumb 12.9266 -17.8718
lclavicle -4.83295e-014 -2.90226e-014
lhumerus -32.8251 10.8628 84.0733
lradius 25.3709
lwrist -8.88613
lhand -16.6406 23.7318
lfingers 7.12502
lthumb 9.58208 53.4939
rfemur -0.122487 5.44164 28.2246
rtibia 19.3883
rfoot -16.4048 -6.52475
rtoes 11.6055
lfemur -30.7153 -3.29315 -15.9645
ltibia 29.3451
lfoot -7.01809 6.32655
ltoes -10.5574
471
root 10.3465 17.4471 10.5344 76.7493 93.4388 73.5427
lowerback 7.18947 2.09564 2.53369
upperback -0.360646 3.11456 1.80238
thorax -4.37196 1.51628 0.108806
lowerneck -16.8341 -4.71523 -8.2367
upperneck 22.1104 -5.19787 4.42277
head 10.182 -2.4999 2.22913
rclavicle -1.31695e-015 -5.1684e-015
rhumerus -27.9945 -8.31371 -80.8823
rradius 33.2687
rwrist 4.43318
rhand -13.0042 11.9154
rfingers 7.12502
rthumb 13.0892 -17.6538
lclavicle -1.31695e-015 -5.1684e-015
lhumerus -32.903 11.1961 83.9702
lradius 25.125
lwrist -9.32585
lhand -16.4504 23.6779
lfingers 7.12502
lthumb 9.76564 53.4315
rfemur 0.521084 5.62447 28.4642
rtibia 18.5959
rfoot -16.2243 -6.72285
rtoes 10.4814
lfemur -30.9157 -3.31565 -15.4983
ltibia 27.3632
lfoot -6.96484 5.51588
ltoes -10.482
472
root 10.4793 17.4383 10.5339 77.2568 93.8869 73.9859
lowerback 7.17033 2.04287 2.79502
upperback -0.40045 3.0823 2.0283
thorax -4.40265 1.49839 0.19993
lowerneck -16.9605 -4.68988 -8.35875
upperneck 22.2586 -5.09927 4.34913
head 10.2546 -2.47177 2.23653
rclavicle -7.34509e-014 -1.55052e-014
rhumerus -27.8572 -8.52212 -80.7562
rradius 33.3746
rwrist 4.57103
rhand -13.3588 11.8485
rfingers 7.12502
rthumb 12.7474 -17.7424
lclavicle -7.34509e-014 -1.55052e-014
lhumerus -33.0033 11.0321 84.0248
lradius 24.9658
lwrist -9.1718
lhand -15.5166 23.4961
lfingers 7.12502
lthumb 10.6664 53.2054
rfemur 1.20663 6.14525 29.0291
rtibia 18.2222
rfoot -16.5136 -6.84623
rtoes 12.9162
lfemur -30.8814 -3.85568 -14.6945
ltibia 25.325
lfoot -7.03886 5.15634
ltoes -10.0498
473
root 10.6354 17.4425 10.5035 84.7032 95.5322 80.7286
lowerback 6.15476 2.04693 4.8579
upperback -0.501539 3.22683 2.34666
thorax -3.84344 1.54368 -0.592518
lowerneck -17.0955 -4.60574 -8.32556
upperneck 22.2543 -4.99015 4.38285
head 10.2702 -2.41413 2.25695
rclavicle -3.10104e-014 -1.98785e-014
rhumerus -27.6453 -8.47434 -80.9294
rradius 33.5471
rwrist 4.24095
rhand -14.02 11.5138
rfingers 7.12502
rthumb 12.1098 -18.1157
lclavicle -3.10104e-014 -1.98785e-014
lhumerus -32.9729 11.3499 83.8483
lradius 24.695
lwrist -9.6119
lhand -14.7349 23.0767
lfingers 7.12502
lthumb 11.4204 52.7457
rfemur -1.3974 5.94283 30.5738
rtibia 23.1386
rfoot -19.3973 -5.85636
rtoes 14.7301
lfemur -29.1161 -4.69679 -12.2822
ltibia 18.9698
lfoot -5.26511 5.76418
ltoes -7.22482
474
root 10.734 17.4479 10.4584 112.017 94.8341 108.082
lowerback 6.78982 2.81816 4.10338
upperback -0.545647 4.21129 1.99259
thorax -4.22876 2.02997 -0.662643
lowerneck -17.2418 -4.58893 -8.42333
upperneck 22.4046 -4.94555 4.45293
head 10.354 -2.39194 2.30402
rclavicle -6.08778e-015 -2.26615e-014
rhumerus -27.4946 -8.11651 -81.0032
rradius 33.6821
rwrist 3.5957
rhand -14.1219 11.3375
rfingers 7.12502
rthumb 12.0116 -18.2979
lclavicle -6.08778e-015 -2.26615e-014
lhumerus -33.0184 12.0843 83.6497
lradius 24.441
lwrist -10.2347
lhand -15.2866 23.5463
lfingers 7.12502
lthumb 10.8883 53.244
rfemur -0.881031 6.82211 29.3078
rtibia 22.6598
rfoot -18.5936 -5.62311
rtoes 8.74159
lfemur -28.59 -7.70114 -11.5034
ltibia 17.4771
lfoot -6.04986 10.4033
ltoes -5.26547
475
root 10.9881 17.1667 10.2473 85.7693 65.1187 87.6531
lowerback 10.8521 4.04044 -23.173
upperback 1.51271 2.79346 -5.9388
thorax -5.19163 1.96068 5.83895
lowerneck -17.5044 -4.62812 -8.57994
upperneck 22.7082 -4.92301 4.40889
head 10.517 -2.39715 2.31654
rclavicle -1.54555e-014 -5.40694e-014
rhumerus -27.3608 -7.89121 -80.92
rradius 33.7842
rwrist 3.51539
rhand -13.8482 11.3755
rfingers 7.12502
rthumb 12.2755 -18.2442
lclavicle -1.54555e-014 -5.40694e-014
lhumerus -33.0729 12.3766 83.5484
lradius 24.3305
lwrist -9.9914
lhand -15.9197 24.0703
lfingers 7.12502
lthumb 10.2776 53.7991
rfemur 5.93077 -2.12606 -6.86738
rtibia 23.4047
rfoot -21.7105 3.80076
rtoes 3.71465
lfemur -20.3072 -9.27281 -45.2768
ltibia 15.4225
lfoot -7.83769 10.7712
ltoes -6.03724
476
root 10.9965 17.423 10.4439 121.573 95.3331 117.454
lowerback 6.77865 3.15527 3.83803
upperback -0.603791 4.65181 2.18117
thorax -4.30314 2.25574 -0.365544
lowerneck -17.3844 -4.59124 -8.59995
upperneck 22.5919 -4.86691 4.38068
head 10.4476 -2.37773 2.31858
rclavicle -5.76476e-015 3.57812e-015
rhumerus -27.3517 -7.85905 -80.853
rradius 33.9894
rwrist 3.55344
rhand -13.9008 11.1803
rfingers 7.12502
rthumb 12.2247 -18.4424
lclavicle -5.76476e-015 3.57812e-015
lhumerus -33.1203 12.4453 83.516
lradius 24.2242
lwrist -9.52147
lhand -14.9745 23.6406
lfingers 7.12502
lthumb 11.1893 53.3222
rfemur 0.589875 6.61366 29.3835
rtibia 21.0678
rfoot -17.8414 -5.58982
rtoes 3.75402
lfemur -29.3382 -9.58633 -10.3163
ltibia 16.4526
lfoot -8.01976 13.5662
ltoes -7.41182
477
root 11.1556 17.3924 10.4931 98.3814 94.2742 94.7817
lowerback 6.95764 2.51157 2.864
upperback -0.438716 3.7215 2.29479
thorax -4.32772 1.81977 0.378722
lowerneck -16.9879 -4.48435 -8.3686
upperneck 22.2314 -4.77335 4.22639
head 10.2238 -2.3368 2.2411
rclavicle -3.52843e-015 2.26615e-014
rhumerus -27.332 -7.89863 -80.825
rradius 34.1115
rwrist 3.43139
rhand -13.8927 10.8938
rfingers 7.12502
rthumb 12.2326 -18.7285
lclavicle -3.52843e-015 2.26615e-014
lhumerus -33.2188 13.2764 83.315
lradius 23.9197
lwrist -10.5009
lhand -14.2544 23.2283
lfingers 7.12502
lthumb 11.8838 52.8711
rfemur 1.86926 5.47294 29.4351
rtibia 20.7983
rfoot -18.0106 -6.61751
rtoes 3.76069
lfemur -29.14 -6.05001 -12.9012
ltibia 15.6078
lfoot -7.69821 8.28676
ltoes -13.7528
478
root 11.3177 17.3408 10.5944 90.4217 99.7986 87.9802
lowerback 7.76658 2.08325 7.27018
upperback -0.095953 3.73986 4.04479
thorax -4.28154 1.78916 -0.279648
lowerneck -17.081 -4.47903 -8.55222
upperneck 22.3259 -4.75382 4.41064
head 10.2842 -2.32104 2.33978
rclavicle 3.60049e-014 4.69132e-014
rhumerus -27.116 -8.08885 -80.9194
rradius 34.0098
rwrist 3.46076
rhand -14.0126 11.2415
rfingers 7.12502
rthumb 12.1169 -18.3877
lclavicle 3.60049e-014 4.69132e-014
lhumerus -33.2685 13.7088 83.1312
lradius 23.5051
lwrist -12.4656
lhand -16.0023 23.9786
lfingers 7.12502
lthumb 10.1979 53.7114
rfemur 7.36709 6.7321 36.3738
rtibia 13.4874
rfoot -14.323 -8.12294
rtoes 4.22795
lfemur -31.335 -5.9174 -6.535
ltibia 21.2566
lfoot -11.3198 7.06542
ltoes -11.2509
479
root 11.425 17.3885 10.4461 91.0283 94.6176 86.6191
lowerback 6.16839 2.24828 3.72263
upperback -0.67146 3.40742 2.25232
thorax -4.0773 1.64737 -0.0803527
lowerneck -17.6332 -4.55639 -9.96508
upperneck 22.9652 -4.65566 5.37296
head 10.6813 -2.2793 2.93792
rclavicle -6.95746e-015 -3.69739e-014
rhumerus -27.0393 -7.86133 -80.8228
rradius 34.0078
rwrist 3.09562
rhand -13.9825 11.5783
rfingers 7.12502
rthumb 12.146 -18.0491
lclavicle -6.95746e-015 -3.69739e-014
lhumerus -33.2867 14.0022 82.8593
lradius 23.4212
lwrist -11.496
lhand -14.7471 23.9811
lfingers 7.12502
lthumb 11.4086 53.6507
rfemur 5.82381 5.64216 29.7235
rtibia 13.3209
rfoot -14.569 -6.22957
rtoes 5.46118
lfemur -32.9065 -6.59704 -12.4842
ltibia 20.7567
lfoot -11.1727 7.99777
ltoes -11.6864
